
<svg xmlns="http://www.w3.org/2000/svg" 
    width="151.92pt"
    height="48.96pt"
    viewBox="0 0 151.92 48.96">
<defs/>
<path id="shape0" transform="matrix(0.72 0 0 0.72 0 0)" fill="#ffffff" stroke="#000000" stroke-opacity="0" stroke-width="0" stroke-linecap="square" stroke-linejoin="bevel" d="M20.0745 34.6485L8.84014 46.1362L8.84014 62.2561L0 62.2561L0 0L8.84014 0L8.84014 34.8338L42.359 0L52.4883 0L26.1521 27.9782L54.33 62.2561L44.0165 62.2561Z"/><path id="shape1" transform="matrix(0.72 0 0 0.72 85.52808 10.539072)" fill="#ffffff" stroke="#000000" stroke-opacity="0" stroke-width="0" stroke-linecap="square" stroke-linejoin="bevel" d="M0 42.6158L3.5 35.9455C7.551 38.7248 13.813 40.7629 19.891 40.7629C27.81 40.7629 30.941 38.3542 30.941 34.2779C30.941 23.7166 1.289 32.7956 1.289 14.0817C1.289 5.5586 8.84 0 20.811 0C26.889 0 33.887 1.6676 37.939 4.2616L34.256 10.9319C30.02 8.1526 25.416 7.2262 20.811 7.2262C13.445 7.2262 9.761 10.0055 9.761 13.7112C9.761 24.8283 39.413 15.7493 39.413 34.0926C39.413 42.6158 31.677 47.9891 19.154 47.9891C11.603 48.1744 3.868 45.7657 0 42.6158Z"/><path id="shape2" transform="matrix(0.72 0 0 0.72 121.99392 10.405656)" fill="#ffffff" stroke="#000000" stroke-opacity="0" stroke-width="0" stroke-linecap="square" stroke-linejoin="bevel" d="M40.886 19.2698L40.886 47.8038L32.782 47.8038L32.782 41.5041C30.02 45.7657 24.679 48.1744 17.312 48.1744C6.63 48.1744 0 42.4305 0 34.2779C0 26.6812 4.788 20.5668 18.785 20.5668L32.23 20.5668L32.23 18.8992C32.23 11.673 27.994 7.5967 19.706 7.5967C14.181 7.5967 8.472 9.6349 4.788 12.5995L1.289 6.1145C6.078 2.2234 13.076 0 20.627 0C33.703 0.1853 40.886 6.485 40.886 19.2698ZM32.414 33.3515L32.414 26.6812L19.338 26.6812C10.866 26.6812 8.472 30.0164 8.472 33.9074C8.472 38.5395 12.339 41.5041 18.785 41.5041C25.231 41.6894 30.388 38.9101 32.414 33.3515Z"/><path id="shape3" transform="matrix(0.72 0 0 0.72 65.903256 33.618312)" fill="#ffffff" stroke="#000000" stroke-opacity="0" stroke-width="0" stroke-linecap="square" stroke-linejoin="bevel" d="M0 3.1499L0 15.7493L5.3409 12.5995L5.3409 0Z"/><path id="shape4" transform="matrix(0.72 0 0 0.72 43.360848 10.539072)" fill="#ffffff" stroke="#000000" stroke-opacity="0" stroke-width="0" stroke-linecap="square" stroke-linejoin="bevel" d="M46.0426 19.8256L24.1263 7.0409L11.9711 0L0 20.9373L0.1842 40.5777L21.9162 53.3624L24.1263 52.0654L24.1263 33.5368L33.8872 16.3052L43.8326 22.049L43.8326 40.5777L46.0426 39.2807Z"/>
</svg>
